<?xml version="1.0" encoding="utf-8" standalone="no"?>
<!DOCTYPE svg PUBLIC "-//W3C//DTD SVG 1.1//EN"
  "http://www.w3.org/Graphics/SVG/1.1/DTD/svg11.dtd">
<svg xmlns:xlink="http://www.w3.org/1999/xlink" width="360pt" height="216pt" viewBox="0 0 360 216" xmlns="http://www.w3.org/2000/svg" version="1.1">
 <metadata>
  <rdf:RDF xmlns:dc="http://purl.org/dc/elements/1.1/" xmlns:cc="http://creativecommons.org/ns#" xmlns:rdf="http://www.w3.org/1999/02/22-rdf-syntax-ns#">
   <cc:Work>
    <dc:type rdf:resource="http://purl.org/dc/dcmitype/StillImage"/>
    <dc:date>2026-06-14T10:38:15.885051</dc:date>
    <dc:format>image/svg+xml</dc:format>
    <dc:creator>
     <cc:Agent>
      <dc:title>Matplotlib v3.10.9, https://matplotlib.org/</dc:title>
     </cc:Agent>
    </dc:creator>
   </cc:Work>
  </rdf:RDF>
 </metadata>
 <defs>
  <style type="text/css">*{stroke-linejoin: round; stroke-linecap: butt}</style>
 </defs>
 <g id="figure_1">
  <g id="patch_1">
   <path d="M 0 216 
L 360 216 
L 360 0 
L 0 0 
z
" style="fill: #111111"/>
  </g>
  <g id="axes_1">
   <g id="patch_2">
    <path d="M 38.27 174.04 
L 349.2 174.04 
L 349.2 26.88 
L 38.27 26.88 
z
" style="fill: #111111"/>
   </g>
   <g id="FillBetweenPolyCollection_1">
    <defs>
     <path id="m4df66bb4bf" d="M 116.0025 -48.649091 
L 106.670056 -48.649091 
L 105.241368 -50.000422 
L 103.608942 -51.351754 
L 101.758944 -52.703085 
L 99.682824 -54.054417 
L 97.379008 -55.405748 
L 94.854474 -56.75708 
L 92.126056 -58.108411 
L 89.221337 -59.459743 
L 86.178999 -60.811074 
L 83.048509 -62.162406 
L 79.889086 -63.513737 
L 76.767932 -64.865069 
L 73.757762 -66.2164 
L 70.933751 -67.567732 
L 68.370061 -68.919063 
L 66.136164 -70.270395 
L 64.293209 -71.621726 
L 62.890697 -72.973058 
L 61.963712 -74.324389 
L 61.530936 -75.675721 
L 61.593597 -77.027052 
L 62.135458 -78.378384 
L 63.123845 -79.729715 
L 64.511648 -81.081047 
L 66.240138 -82.432378 
L 68.242396 -83.78371 
L 70.447074 -85.135041 
L 72.782228 -86.486373 
L 75.178933 -87.837704 
L 77.574429 -89.189036 
L 79.914617 -90.540367 
L 82.155751 -91.891699 
L 84.265283 -93.24303 
L 86.22186 -94.594362 
L 88.01458 -95.945693 
L 89.641613 -97.297025 
L 91.108406 -98.648356 
L 92.425635 -99.999688 
L 93.607134 -101.351019 
L 94.667968 -102.702351 
L 95.62281 -104.053682 
L 96.484719 -105.405014 
L 97.264388 -106.756345 
L 97.96986 -108.107677 
L 98.606677 -109.459008 
L 99.178376 -110.81034 
L 99.687239 -112.161671 
L 100.135161 -113.513003 
L 100.524526 -114.864334 
L 100.858972 -116.215666 
L 101.143961 -117.566997 
L 101.38708 -118.918329 
L 101.598065 -120.26966 
L 101.788525 -121.620992 
L 101.97142 -122.972323 
L 102.160341 -124.323655 
L 102.368679 -125.674986 
L 102.608754 -127.026318 
L 102.890998 -128.377649 
L 103.223268 -129.728981 
L 103.610351 -131.080312 
L 104.053685 -132.431644 
L 104.551342 -133.782975 
L 105.098232 -135.134307 
L 105.68653 -136.485638 
L 106.306263 -137.83697 
L 106.946 -139.188301 
L 107.593601 -140.539633 
L 108.236936 -141.890964 
L 108.864543 -143.242296 
L 109.466177 -144.593627 
L 110.033199 -145.944959 
L 110.55883 -147.29629 
L 111.038227 -148.647622 
L 111.468434 -149.998953 
L 111.848206 -151.350285 
L 112.177756 -152.701616 
L 112.458451 -154.052948 
L 112.692497 -155.404279 
L 112.882645 -156.755611 
L 113.03194 -158.106942 
L 113.143537 -159.458274 
L 113.220585 -160.809605 
L 113.266178 -162.160937 
L 113.283372 -163.512268 
L 113.275248 -164.8636 
L 113.244998 -166.214931 
L 113.19602 -167.566263 
L 113.132 -168.917594 
L 113.05696 -170.268926 
L 112.975264 -171.620257 
L 112.891572 -172.971589 
L 112.810738 -174.32292 
L 112.737669 -175.674252 
L 112.677138 -177.025583 
L 112.633583 -178.376915 
L 112.610897 -179.728246 
L 112.612236 -181.079578 
L 112.639853 -182.430909 
L 116.0025 -182.430909 
L 116.0025 -182.430909 
L 116.0025 -181.079578 
L 116.0025 -179.728246 
L 116.0025 -178.376915 
L 116.0025 -177.025583 
L 116.0025 -175.674252 
L 116.0025 -174.32292 
L 116.0025 -172.971589 
L 116.0025 -171.620257 
L 116.0025 -170.268926 
L 116.0025 -168.917594 
L 116.0025 -167.566263 
L 116.0025 -166.214931 
L 116.0025 -164.8636 
L 116.0025 -163.512268 
L 116.0025 -162.160937 
L 116.0025 -160.809605 
L 116.0025 -159.458274 
L 116.0025 -158.106942 
L 116.0025 -156.755611 
L 116.0025 -155.404279 
L 116.0025 -154.052948 
L 116.0025 -152.701616 
L 116.0025 -151.350285 
L 116.0025 -149.998953 
L 116.0025 -148.647622 
L 116.0025 -147.29629 
L 116.0025 -145.944959 
L 116.0025 -144.593627 
L 116.0025 -143.242296 
L 116.0025 -141.890964 
L 116.0025 -140.539633 
L 116.0025 -139.188301 
L 116.0025 -137.83697 
L 116.0025 -136.485638 
L 116.0025 -135.134307 
L 116.0025 -133.782975 
L 116.0025 -132.431644 
L 116.0025 -131.080312 
L 116.0025 -129.728981 
L 116.0025 -128.377649 
L 116.0025 -127.026318 
L 116.0025 -125.674986 
L 116.0025 -124.323655 
L 116.0025 -122.972323 
L 116.0025 -121.620992 
L 116.0025 -120.26966 
L 116.0025 -118.918329 
L 116.0025 -117.566997 
L 116.0025 -116.215666 
L 116.0025 -114.864334 
L 116.0025 -113.513003 
L 116.0025 -112.161671 
L 116.0025 -110.81034 
L 116.0025 -109.459008 
L 116.0025 -108.107677 
L 116.0025 -106.756345 
L 116.0025 -105.405014 
L 116.0025 -104.053682 
L 116.0025 -102.702351 
L 116.0025 -101.351019 
L 116.0025 -99.999688 
L 116.0025 -98.648356 
L 116.0025 -97.297025 
L 116.0025 -95.945693 
L 116.0025 -94.594362 
L 116.0025 -93.24303 
L 116.0025 -91.891699 
L 116.0025 -90.540367 
L 116.0025 -89.189036 
L 116.0025 -87.837704 
L 116.0025 -86.486373 
L 116.0025 -85.135041 
L 116.0025 -83.78371 
L 116.0025 -82.432378 
L 116.0025 -81.081047 
L 116.0025 -79.729715 
L 116.0025 -78.378384 
L 116.0025 -77.027052 
L 116.0025 -75.675721 
L 116.0025 -74.324389 
L 116.0025 -72.973058 
L 116.0025 -71.621726 
L 116.0025 -70.270395 
L 116.0025 -68.919063 
L 116.0025 -67.567732 
L 116.0025 -66.2164 
L 116.0025 -64.865069 
L 116.0025 -63.513737 
L 116.0025 -62.162406 
L 116.0025 -60.811074 
L 116.0025 -59.459743 
L 116.0025 -58.108411 
L 116.0025 -56.75708 
L 116.0025 -55.405748 
L 116.0025 -54.054417 
L 116.0025 -52.703085 
L 116.0025 -51.351754 
L 116.0025 -50.000422 
L 116.0025 -48.649091 
z
" style="stroke: #4b4b4b; stroke-width: 1.2"/>
    </defs>
    <g clip-path="url(#p1b689b3520)">
     <use xlink:href="#m4df66bb4bf" x="0" y="216" style="fill: #9e9e9e; stroke: #4b4b4b; stroke-width: 1.2"/>
    </g>
   </g>
   <g id="FillBetweenPolyCollection_2">
    <defs>
     <path id="m17abdbc94a" d="M 118.77562 -48.649091 
L 116.0025 -48.649091 
L 116.0025 -49.45989 
L 116.0025 -50.270689 
L 116.0025 -51.081488 
L 116.0025 -51.892287 
L 116.0025 -52.703085 
L 116.0025 -53.513884 
L 116.0025 -54.324683 
L 116.0025 -55.135482 
L 116.0025 -55.946281 
L 116.0025 -56.75708 
L 116.0025 -57.567879 
L 116.0025 -58.378678 
L 116.0025 -59.189477 
L 116.0025 -60.000275 
L 116.0025 -60.811074 
L 116.0025 -61.621873 
L 116.0025 -62.432672 
L 116.0025 -63.243471 
L 116.0025 -64.05427 
L 116.0025 -64.865069 
L 116.0025 -65.675868 
L 116.0025 -66.486667 
L 116.0025 -67.297466 
L 116.0025 -68.108264 
L 116.0025 -68.919063 
L 116.0025 -69.729862 
L 116.0025 -70.540661 
L 116.0025 -71.35146 
L 116.0025 -72.162259 
L 116.0025 -72.973058 
L 116.0025 -73.783857 
L 116.0025 -74.594656 
L 116.0025 -75.405455 
L 116.0025 -76.216253 
L 116.0025 -77.027052 
L 116.0025 -77.837851 
L 116.0025 -78.64865 
L 116.0025 -79.459449 
L 116.0025 -80.270248 
L 116.0025 -81.081047 
L 116.0025 -81.891846 
L 116.0025 -82.702645 
L 116.0025 -83.513444 
L 116.0025 -84.324242 
L 116.0025 -85.135041 
L 116.0025 -85.94584 
L 116.0025 -86.756639 
L 116.0025 -87.567438 
L 116.0025 -88.378237 
L 116.0025 -89.189036 
L 116.0025 -89.999835 
L 116.0025 -90.810634 
L 116.0025 -91.621433 
L 116.0025 -92.432231 
L 116.0025 -93.24303 
L 116.0025 -94.053829 
L 116.0025 -94.864628 
L 116.0025 -95.675427 
L 116.0025 -96.486226 
L 116.0025 -97.297025 
L 116.0025 -98.107824 
L 116.0025 -98.918623 
L 116.0025 -99.729421 
L 116.0025 -100.54022 
L 116.0025 -101.351019 
L 116.0025 -102.161818 
L 116.0025 -102.972617 
L 116.0025 -103.783416 
L 116.0025 -104.594215 
L 116.0025 -105.405014 
L 116.0025 -106.215813 
L 116.0025 -107.026612 
L 116.0025 -107.83741 
L 116.0025 -108.648209 
L 116.0025 -109.459008 
L 116.0025 -110.269807 
L 116.0025 -111.080606 
L 116.0025 -111.891405 
L 116.0025 -112.702204 
L 116.0025 -113.513003 
L 116.0025 -114.323802 
L 116.0025 -115.134601 
L 116.0025 -115.945399 
L 116.0025 -116.756198 
L 116.0025 -117.566997 
L 116.0025 -118.377796 
L 116.0025 -119.188595 
L 116.0025 -119.999394 
L 116.0025 -120.810193 
L 116.0025 -121.620992 
L 116.0025 -122.431791 
L 116.0025 -123.24259 
L 116.0025 -124.053388 
L 116.0025 -124.864187 
L 116.0025 -125.674986 
L 116.0025 -126.485785 
L 116.0025 -127.296584 
L 116.0025 -128.107383 
L 116.0025 -128.918182 
L 121.029532 -128.918182 
L 121.029532 -128.918182 
L 121.026886 -128.107383 
L 120.98322 -127.296584 
L 120.902598 -126.485785 
L 120.790765 -125.674986 
L 120.655006 -124.864187 
L 120.503949 -124.053388 
L 120.347304 -123.24259 
L 120.195563 -122.431791 
L 120.059664 -121.620992 
L 119.950627 -120.810193 
L 119.87918 -119.999394 
L 119.855386 -119.188595 
L 119.888262 -118.377796 
L 119.985428 -117.566997 
L 120.152766 -116.756198 
L 120.394116 -115.945399 
L 120.71102 -115.134601 
L 121.102515 -114.323802 
L 121.565002 -113.513003 
L 122.09219 -112.702204 
L 122.675148 -111.891405 
L 123.302457 -111.080606 
L 123.960481 -110.269807 
L 124.633768 -109.459008 
L 125.305555 -108.648209 
L 125.958394 -107.83741 
L 126.574866 -107.026612 
L 127.138356 -106.215813 
L 127.633871 -105.405014 
L 128.048855 -104.594215 
L 128.373967 -103.783416 
L 128.603782 -102.972617 
L 128.737379 -102.161818 
L 128.778792 -101.351019 
L 128.737288 -100.54022 
L 128.627464 -99.729421 
L 128.469155 -98.918623 
L 128.287134 -98.107824 
L 128.110633 -97.297025 
L 127.972665 -96.486226 
L 127.909183 -95.675427 
L 127.958067 -94.864628 
L 128.157968 -94.053829 
L 128.547019 -93.24303 
L 129.161436 -92.432231 
L 130.03403 -91.621433 
L 131.192665 -90.810634 
L 132.658709 -89.999835 
L 134.445523 -89.189036 
L 136.557061 -88.378237 
L 138.986663 -87.567438 
L 141.716117 -86.756639 
L 144.715086 -85.94584 
L 147.940981 -85.135041 
L 151.339356 -84.324242 
L 154.844878 -83.513444 
L 158.382885 -82.702645 
L 161.871529 -81.891846 
L 165.224435 -81.081047 
L 168.353794 -80.270248 
L 171.173733 -79.459449 
L 173.603806 -78.64865 
L 175.57241 -77.837851 
L 177.019924 -77.027052 
L 177.901382 -76.216253 
L 178.1885 -75.405455 
L 177.870945 -74.594656 
L 176.956738 -73.783857 
L 175.471782 -72.973058 
L 173.458539 -72.162259 
L 170.973946 -71.35146 
L 168.086705 -70.540661 
L 164.874127 -69.729862 
L 161.418724 -68.919063 
L 157.804746 -68.108264 
L 154.114879 -67.297466 
L 150.427257 -66.486667 
L 146.812928 -65.675868 
L 143.333893 -64.865069 
L 140.041734 -64.05427 
L 136.976878 -63.243471 
L 134.168431 -62.432672 
L 131.634543 -61.621873 
L 129.383196 -60.811074 
L 127.413331 -60.000275 
L 125.716188 -59.189477 
L 124.276776 -58.378678 
L 123.075361 -57.567879 
L 122.088906 -56.75708 
L 121.292405 -55.946281 
L 120.660053 -55.135482 
L 120.166253 -54.324683 
L 119.786419 -53.513884 
L 119.497612 -52.703085 
L 119.278985 -51.892287 
L 119.112083 -51.081488 
L 118.981003 -50.270689 
L 118.872436 -49.45989 
L 118.77562 -48.649091 
z
" style="stroke: #4b4b4b; stroke-width: 1.2"/>
    </defs>
    <g clip-path="url(#p1b689b3520)">
     <use xlink:href="#m17abdbc94a" x="0" y="216" style="fill: #42b874; stroke: #4b4b4b; stroke-width: 1.2"/>
    </g>
   </g>
   <g id="FillBetweenPolyCollection_3">
    <defs>
     <path id="mcb2e983554" d="M 271.4675 -75.405455 
L 209.2815 -75.405455 
L 209.382759 -76.48652 
L 210.062009 -77.567585 
L 211.282868 -78.64865 
L 212.991231 -79.729715 
L 215.117988 -80.810781 
L 217.582503 -81.891846 
L 220.29664 -82.972911 
L 223.169084 -84.053976 
L 226.109675 -85.135041 
L 229.033493 -86.216107 
L 231.864465 -87.297172 
L 234.538283 -88.378237 
L 237.004509 -89.459302 
L 239.227768 -90.540367 
L 241.188029 -91.621433 
L 242.880007 -92.702498 
L 244.311773 -93.783563 
L 245.502724 -94.864628 
L 246.481072 -95.945693 
L 247.281038 -97.026758 
L 247.939936 -98.107824 
L 248.49535 -99.188889 
L 248.982546 -100.269954 
L 249.432276 -101.351019 
L 249.869076 -102.432084 
L 250.310128 -103.51315 
L 250.764727 -104.594215 
L 251.234336 -105.67528 
L 251.713198 -106.756345 
L 252.189439 -107.83741 
L 252.646545 -108.918476 
L 253.065121 -109.999541 
L 253.424791 -111.080606 
L 253.706118 -112.161671 
L 253.892406 -113.242736 
L 253.971285 -114.323802 
L 253.935968 -115.404867 
L 253.786115 -116.485932 
L 253.528244 -117.566997 
L 253.175686 -118.648062 
L 252.748078 -119.729128 
L 252.270438 -120.810193 
L 251.77189 -121.891258 
L 251.28412 -122.972323 
L 250.839662 -124.053388 
L 250.470135 -125.134454 
L 250.204535 -126.215519 
L 250.067689 -127.296584 
L 250.07898 -128.377649 
L 250.251396 -129.458714 
L 250.590974 -130.53978 
L 251.096649 -131.620845 
L 251.760515 -132.70191 
L 252.568454 -133.782975 
L 253.501084 -134.86404 
L 254.534949 -135.945106 
L 255.643869 -137.026171 
L 256.800343 -138.107236 
L 257.976933 -139.188301 
L 259.14753 -140.269366 
L 260.288448 -141.350432 
L 261.379282 -142.431497 
L 262.403509 -143.512562 
L 263.348816 -144.593627 
L 264.207169 -145.674692 
L 264.974637 -146.755758 
L 265.651023 -147.836823 
L 266.239331 -148.917888 
L 266.745142 -149.998953 
L 267.175921 -151.080018 
L 267.540326 -152.161084 
L 267.847556 -153.242149 
L 268.106758 -154.323214 
L 268.326544 -155.404279 
L 268.514602 -156.485344 
L 268.677445 -157.56641 
L 268.820261 -158.647475 
L 268.946886 -159.72854 
L 269.059868 -160.809605 
L 269.160615 -161.89067 
L 269.249599 -162.971736 
L 269.326606 -164.052801 
L 269.391 -165.133866 
L 269.441986 -166.214931 
L 269.47886 -167.295996 
L 269.501215 -168.377062 
L 269.509115 -169.458127 
L 269.503208 -170.539192 
L 269.484781 -171.620257 
L 269.455767 -172.701322 
L 269.418685 -173.782388 
L 269.376545 -174.863453 
L 269.332709 -175.944518 
L 269.29072 -177.025583 
L 269.254129 -178.106648 
L 269.226302 -179.187713 
L 269.210257 -180.268779 
L 269.208505 -181.349844 
L 269.222934 -182.430909 
L 271.4675 -182.430909 
L 271.4675 -182.430909 
L 271.4675 -181.349844 
L 271.4675 -180.268779 
L 271.4675 -179.187713 
L 271.4675 -178.106648 
L 271.4675 -177.025583 
L 271.4675 -175.944518 
L 271.4675 -174.863453 
L 271.4675 -173.782388 
L 271.4675 -172.701322 
L 271.4675 -171.620257 
L 271.4675 -170.539192 
L 271.4675 -169.458127 
L 271.4675 -168.377062 
L 271.4675 -167.295996 
L 271.4675 -166.214931 
L 271.4675 -165.133866 
L 271.4675 -164.052801 
L 271.4675 -162.971736 
L 271.4675 -161.89067 
L 271.4675 -160.809605 
L 271.4675 -159.72854 
L 271.4675 -158.647475 
L 271.4675 -157.56641 
L 271.4675 -156.485344 
L 271.4675 -155.404279 
L 271.4675 -154.323214 
L 271.4675 -153.242149 
L 271.4675 -152.161084 
L 271.4675 -151.080018 
L 271.4675 -149.998953 
L 271.4675 -148.917888 
L 271.4675 -147.836823 
L 271.4675 -146.755758 
L 271.4675 -145.674692 
L 271.4675 -144.593627 
L 271.4675 -143.512562 
L 271.4675 -142.431497 
L 271.4675 -141.350432 
L 271.4675 -140.269366 
L 271.4675 -139.188301 
L 271.4675 -138.107236 
L 271.4675 -137.026171 
L 271.4675 -135.945106 
L 271.4675 -134.86404 
L 271.4675 -133.782975 
L 271.4675 -132.70191 
L 271.4675 -131.620845 
L 271.4675 -130.53978 
L 271.4675 -129.458714 
L 271.4675 -128.377649 
L 271.4675 -127.296584 
L 271.4675 -126.215519 
L 271.4675 -125.134454 
L 271.4675 -124.053388 
L 271.4675 -122.972323 
L 271.4675 -121.891258 
L 271.4675 -120.810193 
L 271.4675 -119.729128 
L 271.4675 -118.648062 
L 271.4675 -117.566997 
L 271.4675 -116.485932 
L 271.4675 -115.404867 
L 271.4675 -114.323802 
L 271.4675 -113.242736 
L 271.4675 -112.161671 
L 271.4675 -111.080606 
L 271.4675 -109.999541 
L 271.4675 -108.918476 
L 271.4675 -107.83741 
L 271.4675 -106.756345 
L 271.4675 -105.67528 
L 271.4675 -104.594215 
L 271.4675 -103.51315 
L 271.4675 -102.432084 
L 271.4675 -101.351019 
L 271.4675 -100.269954 
L 271.4675 -99.188889 
L 271.4675 -98.107824 
L 271.4675 -97.026758 
L 271.4675 -95.945693 
L 271.4675 -94.864628 
L 271.4675 -93.783563 
L 271.4675 -92.702498 
L 271.4675 -91.621433 
L 271.4675 -90.540367 
L 271.4675 -89.459302 
L 271.4675 -88.378237 
L 271.4675 -87.297172 
L 271.4675 -86.216107 
L 271.4675 -85.135041 
L 271.4675 -84.053976 
L 271.4675 -82.972911 
L 271.4675 -81.891846 
L 271.4675 -80.810781 
L 271.4675 -79.729715 
L 271.4675 -78.64865 
L 271.4675 -77.567585 
L 271.4675 -76.48652 
L 271.4675 -75.405455 
z
" style="stroke: #4b4b4b; stroke-width: 1.2"/>
    </defs>
    <g clip-path="url(#p1b689b3520)">
     <use xlink:href="#mcb2e983554" x="0" y="216" style="fill: #9e9e9e; stroke: #4b4b4b; stroke-width: 1.2"/>
    </g>
   </g>
   <g id="FillBetweenPolyCollection_4">
    <defs>
     <path id="m394db5e1d7" d="M 274.247808 -48.649091 
L 271.4675 -48.649091 
L 271.4675 -49.730156 
L 271.4675 -50.811221 
L 271.4675 -51.892287 
L 271.4675 -52.973352 
L 271.4675 -54.054417 
L 271.4675 -55.135482 
L 271.4675 -56.216547 
L 271.4675 -57.297612 
L 271.4675 -58.378678 
L 271.4675 -59.459743 
L 271.4675 -60.540808 
L 271.4675 -61.621873 
L 271.4675 -62.702938 
L 271.4675 -63.784004 
L 271.4675 -64.865069 
L 271.4675 -65.946134 
L 271.4675 -67.027199 
L 271.4675 -68.108264 
L 271.4675 -69.18933 
L 271.4675 -70.270395 
L 271.4675 -71.35146 
L 271.4675 -72.432525 
L 271.4675 -73.51359 
L 271.4675 -74.594656 
L 271.4675 -75.675721 
L 271.4675 -76.756786 
L 271.4675 -77.837851 
L 271.4675 -78.918916 
L 271.4675 -79.999982 
L 271.4675 -81.081047 
L 271.4675 -82.162112 
L 271.4675 -83.243177 
L 271.4675 -84.324242 
L 271.4675 -85.405308 
L 271.4675 -86.486373 
L 271.4675 -87.567438 
L 271.4675 -88.648503 
L 271.4675 -89.729568 
L 271.4675 -90.810634 
L 271.4675 -91.891699 
L 271.4675 -92.972764 
L 271.4675 -94.053829 
L 271.4675 -95.134894 
L 271.4675 -96.21596 
L 271.4675 -97.297025 
L 271.4675 -98.37809 
L 271.4675 -99.459155 
L 271.4675 -100.54022 
L 271.4675 -101.621286 
L 271.4675 -102.702351 
L 271.4675 -103.783416 
L 271.4675 -104.864481 
L 271.4675 -105.945546 
L 271.4675 -107.026612 
L 271.4675 -108.107677 
L 271.4675 -109.188742 
L 271.4675 -110.269807 
L 271.4675 -111.350872 
L 271.4675 -112.431938 
L 271.4675 -113.513003 
L 271.4675 -114.594068 
L 271.4675 -115.675133 
L 271.4675 -116.756198 
L 271.4675 -117.837264 
L 271.4675 -118.918329 
L 271.4675 -119.999394 
L 271.4675 -121.080459 
L 271.4675 -122.161524 
L 271.4675 -123.24259 
L 271.4675 -124.323655 
L 271.4675 -125.40472 
L 271.4675 -126.485785 
L 271.4675 -127.56685 
L 271.4675 -128.647916 
L 271.4675 -129.728981 
L 271.4675 -130.810046 
L 271.4675 -131.891111 
L 271.4675 -132.972176 
L 271.4675 -134.053242 
L 271.4675 -135.134307 
L 271.4675 -136.215372 
L 271.4675 -137.296437 
L 271.4675 -138.377502 
L 271.4675 -139.458567 
L 271.4675 -140.539633 
L 271.4675 -141.620698 
L 271.4675 -142.701763 
L 271.4675 -143.782828 
L 271.4675 -144.863893 
L 271.4675 -145.944959 
L 271.4675 -147.026024 
L 271.4675 -148.107089 
L 271.4675 -149.188154 
L 271.4675 -150.269219 
L 271.4675 -151.350285 
L 271.4675 -152.43135 
L 271.4675 -153.512415 
L 271.4675 -154.59348 
L 271.4675 -155.674545 
L 273.964013 -155.674545 
L 273.964013 -155.674545 
L 274.062911 -154.59348 
L 274.165333 -153.512415 
L 274.276144 -152.43135 
L 274.400838 -151.350285 
L 274.545268 -150.269219 
L 274.715322 -149.188154 
L 274.916554 -148.107089 
L 275.153783 -147.026024 
L 275.430688 -145.944959 
L 275.749433 -144.863893 
L 276.11033 -143.782828 
L 276.511588 -142.701763 
L 276.949163 -141.620698 
L 277.416727 -140.539633 
L 277.905776 -139.458567 
L 278.405878 -138.377502 
L 278.905065 -137.296437 
L 279.39034 -136.215372 
L 279.848296 -135.134307 
L 280.265787 -134.053242 
L 280.630645 -132.972176 
L 280.932362 -131.891111 
L 281.16272 -130.810046 
L 281.316311 -129.728981 
L 281.390904 -128.647916 
L 281.38765 -127.56685 
L 281.31108 -126.485785 
L 281.168915 -125.40472 
L 280.971679 -124.323655 
L 280.732148 -123.24259 
L 280.464663 -122.161524 
L 280.184357 -121.080459 
L 279.906339 -119.999394 
L 279.644898 -118.918329 
L 279.412764 -117.837264 
L 279.220497 -116.756198 
L 279.07603 -115.675133 
L 278.9844 -114.594068 
L 278.947697 -113.513003 
L 278.965223 -112.431938 
L 279.033868 -111.350872 
L 279.148679 -110.269807 
L 279.303584 -109.188742 
L 279.492232 -108.107677 
L 279.708899 -107.026612 
L 279.949391 -105.945546 
L 280.211889 -104.864481 
L 280.497665 -103.783416 
L 280.811615 -102.702351 
L 281.162548 -101.621286 
L 281.563193 -100.54022 
L 282.029888 -99.459155 
L 282.581944 -98.37809 
L 283.240683 -97.297025 
L 284.028193 -96.21596 
L 284.965825 -95.134894 
L 286.072537 -94.053829 
L 287.36314 -92.972764 
L 288.846585 -91.891699 
L 290.524385 -90.810634 
L 292.389304 -89.729568 
L 294.424421 -88.648503 
L 296.602684 -87.567438 
L 298.887004 -86.486373 
L 301.230973 -85.405308 
L 303.580174 -84.324242 
L 305.874082 -83.243177 
L 308.048454 -82.162112 
L 310.038095 -81.081047 
L 311.779848 -79.999982 
L 313.21562 -78.918916 
L 314.295266 -77.837851 
L 314.979118 -76.756786 
L 315.240018 -75.675721 
L 315.064697 -74.594656 
L 314.454415 -73.51359 
L 313.424825 -72.432525 
L 312.00507 -71.35146 
L 310.236191 -70.270395 
L 308.168963 -69.18933 
L 305.861308 -68.108264 
L 303.375468 -67.027199 
L 300.775127 -65.946134 
L 298.122653 -64.865069 
L 295.476626 -63.784004 
L 292.889767 -62.702938 
L 290.407368 -61.621873 
L 288.066254 -60.540808 
L 285.894293 -59.459743 
L 283.910407 -58.378678 
L 282.125029 -57.297612 
L 280.540918 -56.216547 
L 279.154233 -55.135482 
L 277.955766 -54.054417 
L 276.932237 -52.973352 
L 276.067567 -51.892287 
L 275.344065 -50.811221 
L 274.743467 -49.730156 
L 274.247808 -48.649091 
z
" style="stroke: #4b4b4b; stroke-width: 1.2"/>
    </defs>
    <g clip-path="url(#p1b689b3520)">
     <use xlink:href="#m394db5e1d7" x="0" y="216" style="fill: #42b874; stroke: #4b4b4b; stroke-width: 1.2"/>
    </g>
   </g>
   <g id="patch_3">
    <path d="M 116.0025 194.107273 
L 116.0025 194.107273 
L 116.0025 194.107273 
L 116.0025 194.107273 
z
" clip-path="url(#p1b689b3520)" style="fill: #9e9e9e; stroke: #4b4b4b; stroke-width: 1.2; stroke-linejoin: miter"/>
   </g>
   <g id="patch_4">
    <path d="M 116.0025 194.107273 
L 116.0025 194.107273 
L 116.0025 194.107273 
L 116.0025 194.107273 
z
" clip-path="url(#p1b689b3520)" style="fill: #42b874; stroke: #4b4b4b; stroke-width: 1.2; stroke-linejoin: miter"/>
   </g>
   <g id="matplotlib.axis_1">
    <g id="xtick_1">
     <g id="line2d_1">
      <path d="M 116.0025 174.04 
L 116.0025 26.88 
" clip-path="url(#p1b689b3520)" style="fill: none; stroke: #ffffff; stroke-opacity: 0.08; stroke-width: 0.8; stroke-linecap: square"/>
     </g>
     <g id="line2d_2">
      <defs>
       <path id="m28d6ac98dc" d="M 0 0 
L 0 3.5 
" style="stroke: #ffffff; stroke-width: 0.8"/>
      </defs>
      <g>
       <use xlink:href="#m28d6ac98dc" x="116.0025" y="174.04" style="fill: #ffffff; stroke: #ffffff; stroke-width: 0.8"/>
      </g>
     </g>
     <g id="text_1">
      <!-- Female -->
      <g style="fill: #ffffff" transform="translate(97.925156 188.638438) scale(0.1 -0.1)">
       <defs>
        <path id="DejaVuSans-46" d="M 628 4666 
L 3309 4666 
L 3309 4134 
L 1259 4134 
L 1259 2759 
L 3109 2759 
L 3109 2228 
L 1259 2228 
L 1259 0 
L 628 0 
L 628 4666 
z
" transform="scale(0.015625)"/>
        <path id="DejaVuSans-65" d="M 3597 1894 
L 3597 1613 
L 953 1613 
Q 991 1019 1311 708 
Q 1631 397 2203 397 
Q 2534 397 2845 478 
Q 3156 559 3463 722 
L 3463 178 
Q 3153 47 2828 -22 
Q 2503 -91 2169 -91 
Q 1331 -91 842 396 
Q 353 884 353 1716 
Q 353 2575 817 3079 
Q 1281 3584 2069 3584 
Q 2775 3584 3186 3129 
Q 3597 2675 3597 1894 
z
M 3022 2063 
Q 3016 2534 2758 2815 
Q 2500 3097 2075 3097 
Q 1594 3097 1305 2825 
Q 1016 2553 972 2059 
L 3022 2063 
z
" transform="scale(0.015625)"/>
        <path id="DejaVuSans-6d" d="M 3328 2828 
Q 3544 3216 3844 3400 
Q 4144 3584 4550 3584 
Q 5097 3584 5394 3201 
Q 5691 2819 5691 2113 
L 5691 0 
L 5113 0 
L 5113 2094 
Q 5113 2597 4934 2840 
Q 4756 3084 4391 3084 
Q 3944 3084 3684 2787 
Q 3425 2491 3425 1978 
L 3425 0 
L 2847 0 
L 2847 2094 
Q 2847 2600 2669 2842 
Q 2491 3084 2119 3084 
Q 1678 3084 1418 2786 
Q 1159 2488 1159 1978 
L 1159 0 
L 581 0 
L 581 3500 
L 1159 3500 
L 1159 2956 
Q 1356 3278 1631 3431 
Q 1906 3584 2284 3584 
Q 2666 3584 2933 3390 
Q 3200 3197 3328 2828 
z
" transform="scale(0.015625)"/>
        <path id="DejaVuSans-61" d="M 2194 1759 
Q 1497 1759 1228 1600 
Q 959 1441 959 1056 
Q 959 750 1161 570 
Q 1363 391 1709 391 
Q 2188 391 2477 730 
Q 2766 1069 2766 1631 
L 2766 1759 
L 2194 1759 
z
M 3341 1997 
L 3341 0 
L 2766 0 
L 2766 531 
Q 2569 213 2275 61 
Q 1981 -91 1556 -91 
Q 1019 -91 701 211 
Q 384 513 384 1019 
Q 384 1609 779 1909 
Q 1175 2209 1959 2209 
L 2766 2209 
L 2766 2266 
Q 2766 2663 2505 2880 
Q 2244 3097 1772 3097 
Q 1472 3097 1187 3025 
Q 903 2953 641 2809 
L 641 3341 
Q 956 3463 1253 3523 
Q 1550 3584 1831 3584 
Q 2591 3584 2966 3190 
Q 3341 2797 3341 1997 
z
" transform="scale(0.015625)"/>
        <path id="DejaVuSans-6c" d="M 603 4863 
L 1178 4863 
L 1178 0 
L 603 0 
L 603 4863 
z
" transform="scale(0.015625)"/>
       </defs>
       <use xlink:href="#DejaVuSans-46"/>
       <use xlink:href="#DejaVuSans-65" transform="translate(52.019531 0)"/>
       <use xlink:href="#DejaVuSans-6d" transform="translate(113.542969 0)"/>
       <use xlink:href="#DejaVuSans-61" transform="translate(210.955078 0)"/>
       <use xlink:href="#DejaVuSans-6c" transform="translate(272.234375 0)"/>
       <use xlink:href="#DejaVuSans-65" transform="translate(300.017578 0)"/>
      </g>
     </g>
    </g>
    <g id="xtick_2">
     <g id="line2d_3">
      <path d="M 271.4675 174.04 
L 271.4675 26.88 
" clip-path="url(#p1b689b3520)" style="fill: none; stroke: #ffffff; stroke-opacity: 0.08; stroke-width: 0.8; stroke-linecap: square"/>
     </g>
     <g id="line2d_4">
      <g>
       <use xlink:href="#m28d6ac98dc" x="271.4675" y="174.04" style="fill: #ffffff; stroke: #ffffff; stroke-width: 0.8"/>
      </g>
     </g>
     <g id="text_2">
      <!-- Male -->
      <g style="fill: #ffffff" transform="translate(259.62375 188.638438) scale(0.1 -0.1)">
       <defs>
        <path id="DejaVuSans-4d" d="M 628 4666 
L 1569 4666 
L 2759 1491 
L 3956 4666 
L 4897 4666 
L 4897 0 
L 4281 0 
L 4281 4097 
L 3078 897 
L 2444 897 
L 1241 4097 
L 1241 0 
L 628 0 
L 628 4666 
z
" transform="scale(0.015625)"/>
       </defs>
       <use xlink:href="#DejaVuSans-4d"/>
       <use xlink:href="#DejaVuSans-61" transform="translate(86.279297 0)"/>
       <use xlink:href="#DejaVuSans-6c" transform="translate(147.558594 0)"/>
       <use xlink:href="#DejaVuSans-65" transform="translate(175.341797 0)"/>
      </g>
     </g>
    </g>
    <g id="text_3">
     <!-- Sex -->
     <g style="fill: #ffffff" transform="translate(184.612344 202.316563) scale(0.1 -0.1)">
      <defs>
       <path id="DejaVuSans-53" d="M 3425 4513 
L 3425 3897 
Q 3066 4069 2747 4153 
Q 2428 4238 2131 4238 
Q 1616 4238 1336 4038 
Q 1056 3838 1056 3469 
Q 1056 3159 1242 3001 
Q 1428 2844 1947 2747 
L 2328 2669 
Q 3034 2534 3370 2195 
Q 3706 1856 3706 1288 
Q 3706 609 3251 259 
Q 2797 -91 1919 -91 
Q 1588 -91 1214 -16 
Q 841 59 441 206 
L 441 856 
Q 825 641 1194 531 
Q 1563 422 1919 422 
Q 2459 422 2753 634 
Q 3047 847 3047 1241 
Q 3047 1584 2836 1778 
Q 2625 1972 2144 2069 
L 1759 2144 
Q 1053 2284 737 2584 
Q 422 2884 422 3419 
Q 422 4038 858 4394 
Q 1294 4750 2059 4750 
Q 2388 4750 2728 4690 
Q 3069 4631 3425 4513 
z
" transform="scale(0.015625)"/>
       <path id="DejaVuSans-78" d="M 3513 3500 
L 2247 1797 
L 3578 0 
L 2900 0 
L 1881 1375 
L 863 0 
L 184 0 
L 1544 1831 
L 300 3500 
L 978 3500 
L 1906 2253 
L 2834 3500 
L 3513 3500 
z
" transform="scale(0.015625)"/>
      </defs>
      <use xlink:href="#DejaVuSans-53"/>
      <use xlink:href="#DejaVuSans-65" transform="translate(63.476562 0)"/>
      <use xlink:href="#DejaVuSans-78" transform="translate(123.25 0)"/>
     </g>
    </g>
   </g>
   <g id="matplotlib.axis_2">
    <g id="ytick_1">
     <g id="line2d_5">
      <path d="M 38.27 167.350909 
L 349.2 167.350909 
" clip-path="url(#p1b689b3520)" style="fill: none; stroke: #ffffff; stroke-opacity: 0.08; stroke-width: 0.8; stroke-linecap: square"/>
     </g>
     <g id="line2d_6">
      <defs>
       <path id="m2e05f6a84d" d="M 0 0 
L -3.5 0 
" style="stroke: #ffffff; stroke-width: 0.8"/>
      </defs>
      <g>
       <use xlink:href="#m2e05f6a84d" x="38.27" y="167.350909" style="fill: #ffffff; stroke: #ffffff; stroke-width: 0.8"/>
      </g>
     </g>
     <g id="text_4">
      <!-- 1 -->
      <g style="fill: #ffffff" transform="translate(24.9075 171.150128) scale(0.1 -0.1)">
       <defs>
        <path id="DejaVuSans-31" d="M 794 531 
L 1825 531 
L 1825 4091 
L 703 3866 
L 703 4441 
L 1819 4666 
L 2450 4666 
L 2450 531 
L 3481 531 
L 3481 0 
L 794 0 
L 794 531 
z
" transform="scale(0.015625)"/>
       </defs>
       <use xlink:href="#DejaVuSans-31"/>
      </g>
     </g>
    </g>
    <g id="ytick_2">
     <g id="line2d_7">
      <path d="M 38.27 140.594545 
L 349.2 140.594545 
" clip-path="url(#p1b689b3520)" style="fill: none; stroke: #ffffff; stroke-opacity: 0.08; stroke-width: 0.8; stroke-linecap: square"/>
     </g>
     <g id="line2d_8">
      <g>
       <use xlink:href="#m2e05f6a84d" x="38.27" y="140.594545" style="fill: #ffffff; stroke: #ffffff; stroke-width: 0.8"/>
      </g>
     </g>
     <g id="text_5">
      <!-- 2 -->
      <g style="fill: #ffffff" transform="translate(24.9075 144.393764) scale(0.1 -0.1)">
       <defs>
        <path id="DejaVuSans-32" d="M 1228 531 
L 3431 531 
L 3431 0 
L 469 0 
L 469 531 
Q 828 903 1448 1529 
Q 2069 2156 2228 2338 
Q 2531 2678 2651 2914 
Q 2772 3150 2772 3378 
Q 2772 3750 2511 3984 
Q 2250 4219 1831 4219 
Q 1534 4219 1204 4116 
Q 875 4013 500 3803 
L 500 4441 
Q 881 4594 1212 4672 
Q 1544 4750 1819 4750 
Q 2544 4750 2975 4387 
Q 3406 4025 3406 3419 
Q 3406 3131 3298 2873 
Q 3191 2616 2906 2266 
Q 2828 2175 2409 1742 
Q 1991 1309 1228 531 
z
" transform="scale(0.015625)"/>
       </defs>
       <use xlink:href="#DejaVuSans-32"/>
      </g>
     </g>
    </g>
    <g id="ytick_3">
     <g id="line2d_9">
      <path d="M 38.27 113.838182 
L 349.2 113.838182 
" clip-path="url(#p1b689b3520)" style="fill: none; stroke: #ffffff; stroke-opacity: 0.08; stroke-width: 0.8; stroke-linecap: square"/>
     </g>
     <g id="line2d_10">
      <g>
       <use xlink:href="#m2e05f6a84d" x="38.27" y="113.838182" style="fill: #ffffff; stroke: #ffffff; stroke-width: 0.8"/>
      </g>
     </g>
     <g id="text_6">
      <!-- 3 -->
      <g style="fill: #ffffff" transform="translate(24.9075 117.637401) scale(0.1 -0.1)">
       <defs>
        <path id="DejaVuSans-33" d="M 2597 2516 
Q 3050 2419 3304 2112 
Q 3559 1806 3559 1356 
Q 3559 666 3084 287 
Q 2609 -91 1734 -91 
Q 1441 -91 1130 -33 
Q 819 25 488 141 
L 488 750 
Q 750 597 1062 519 
Q 1375 441 1716 441 
Q 2309 441 2620 675 
Q 2931 909 2931 1356 
Q 2931 1769 2642 2001 
Q 2353 2234 1838 2234 
L 1294 2234 
L 1294 2753 
L 1863 2753 
Q 2328 2753 2575 2939 
Q 2822 3125 2822 3475 
Q 2822 3834 2567 4026 
Q 2313 4219 1838 4219 
Q 1578 4219 1281 4162 
Q 984 4106 628 3988 
L 628 4550 
Q 988 4650 1302 4700 
Q 1616 4750 1894 4750 
Q 2613 4750 3031 4423 
Q 3450 4097 3450 3541 
Q 3450 3153 3228 2886 
Q 3006 2619 2597 2516 
z
" transform="scale(0.015625)"/>
       </defs>
       <use xlink:href="#DejaVuSans-33"/>
      </g>
     </g>
    </g>
    <g id="ytick_4">
     <g id="line2d_11">
      <path d="M 38.27 87.081818 
L 349.2 87.081818 
" clip-path="url(#p1b689b3520)" style="fill: none; stroke: #ffffff; stroke-opacity: 0.08; stroke-width: 0.8; stroke-linecap: square"/>
     </g>
     <g id="line2d_12">
      <g>
       <use xlink:href="#m2e05f6a84d" x="38.27" y="87.081818" style="fill: #ffffff; stroke: #ffffff; stroke-width: 0.8"/>
      </g>
     </g>
     <g id="text_7">
      <!-- 4 -->
      <g style="fill: #ffffff" transform="translate(24.9075 90.881037) scale(0.1 -0.1)">
       <defs>
        <path id="DejaVuSans-34" d="M 2419 4116 
L 825 1625 
L 2419 1625 
L 2419 4116 
z
M 2253 4666 
L 3047 4666 
L 3047 1625 
L 3713 1625 
L 3713 1100 
L 3047 1100 
L 3047 0 
L 2419 0 
L 2419 1100 
L 313 1100 
L 313 1709 
L 2253 4666 
z
" transform="scale(0.015625)"/>
       </defs>
       <use xlink:href="#DejaVuSans-34"/>
      </g>
     </g>
    </g>
    <g id="ytick_5">
     <g id="line2d_13">
      <path d="M 38.27 60.325455 
L 349.2 60.325455 
" clip-path="url(#p1b689b3520)" style="fill: none; stroke: #ffffff; stroke-opacity: 0.08; stroke-width: 0.8; stroke-linecap: square"/>
     </g>
     <g id="line2d_14">
      <g>
       <use xlink:href="#m2e05f6a84d" x="38.27" y="60.325455" style="fill: #ffffff; stroke: #ffffff; stroke-width: 0.8"/>
      </g>
     </g>
     <g id="text_8">
      <!-- 5 -->
      <g style="fill: #ffffff" transform="translate(24.9075 64.124673) scale(0.1 -0.1)">
       <defs>
        <path id="DejaVuSans-35" d="M 691 4666 
L 3169 4666 
L 3169 4134 
L 1269 4134 
L 1269 2991 
Q 1406 3038 1543 3061 
Q 1681 3084 1819 3084 
Q 2600 3084 3056 2656 
Q 3513 2228 3513 1497 
Q 3513 744 3044 326 
Q 2575 -91 1722 -91 
Q 1428 -91 1123 -41 
Q 819 9 494 109 
L 494 744 
Q 775 591 1075 516 
Q 1375 441 1709 441 
Q 2250 441 2565 725 
Q 2881 1009 2881 1497 
Q 2881 1984 2565 2268 
Q 2250 2553 1709 2553 
Q 1456 2553 1204 2497 
Q 953 2441 691 2322 
L 691 4666 
z
" transform="scale(0.015625)"/>
       </defs>
       <use xlink:href="#DejaVuSans-35"/>
      </g>
     </g>
    </g>
    <g id="ytick_6">
     <g id="line2d_15">
      <path d="M 38.27 33.569091 
L 349.2 33.569091 
" clip-path="url(#p1b689b3520)" style="fill: none; stroke: #ffffff; stroke-opacity: 0.08; stroke-width: 0.8; stroke-linecap: square"/>
     </g>
     <g id="line2d_16">
      <g>
       <use xlink:href="#m2e05f6a84d" x="38.27" y="33.569091" style="fill: #ffffff; stroke: #ffffff; stroke-width: 0.8"/>
      </g>
     </g>
     <g id="text_9">
      <!-- 6 -->
      <g style="fill: #ffffff" transform="translate(24.9075 37.36831) scale(0.1 -0.1)">
       <defs>
        <path id="DejaVuSans-36" d="M 2113 2584 
Q 1688 2584 1439 2293 
Q 1191 2003 1191 1497 
Q 1191 994 1439 701 
Q 1688 409 2113 409 
Q 2538 409 2786 701 
Q 3034 994 3034 1497 
Q 3034 2003 2786 2293 
Q 2538 2584 2113 2584 
z
M 3366 4563 
L 3366 3988 
Q 3128 4100 2886 4159 
Q 2644 4219 2406 4219 
Q 1781 4219 1451 3797 
Q 1122 3375 1075 2522 
Q 1259 2794 1537 2939 
Q 1816 3084 2150 3084 
Q 2853 3084 3261 2657 
Q 3669 2231 3669 1497 
Q 3669 778 3244 343 
Q 2819 -91 2113 -91 
Q 1303 -91 875 529 
Q 447 1150 447 2328 
Q 447 3434 972 4092 
Q 1497 4750 2381 4750 
Q 2619 4750 2861 4703 
Q 3103 4656 3366 4563 
z
" transform="scale(0.015625)"/>
       </defs>
       <use xlink:href="#DejaVuSans-36"/>
      </g>
     </g>
    </g>
    <g id="text_10">
     <!-- Size -->
     <g style="fill: #ffffff" transform="translate(18.827813 110.724063) rotate(-90) scale(0.1 -0.1)">
      <defs>
       <path id="DejaVuSans-69" d="M 603 3500 
L 1178 3500 
L 1178 0 
L 603 0 
L 603 3500 
z
M 603 4863 
L 1178 4863 
L 1178 4134 
L 603 4134 
L 603 4863 
z
" transform="scale(0.015625)"/>
       <path id="DejaVuSans-7a" d="M 353 3500 
L 3084 3500 
L 3084 2975 
L 922 459 
L 3084 459 
L 3084 0 
L 275 0 
L 275 525 
L 2438 3041 
L 353 3041 
L 353 3500 
z
" transform="scale(0.015625)"/>
      </defs>
      <use xlink:href="#DejaVuSans-53"/>
      <use xlink:href="#DejaVuSans-69" transform="translate(63.476562 0)"/>
      <use xlink:href="#DejaVuSans-7a" transform="translate(91.259766 0)"/>
      <use xlink:href="#DejaVuSans-65" transform="translate(143.75 0)"/>
     </g>
    </g>
   </g>
   <g id="line2d_17">
    <path d="M 61.617491 140.594545 
L 116.0025 140.594545 
" clip-path="url(#p1b689b3520)" style="fill: none; stroke-dasharray: 1.5,0.9; stroke-dashoffset: 0; stroke: #4b4b4b; stroke-width: 1.2"/>
   </g>
   <g id="line2d_18">
    <path d="M 61.617491 140.594545 
L 116.0025 140.594545 
" clip-path="url(#p1b689b3520)" style="fill: none; stroke-dasharray: 3,1.2; stroke-dashoffset: 0; stroke: #4b4b4b; stroke-width: 1.2"/>
   </g>
   <g id="line2d_19">
    <path d="M 94.243634 113.838182 
L 116.0025 113.838182 
" clip-path="url(#p1b689b3520)" style="fill: none; stroke-dasharray: 1.5,0.9; stroke-dashoffset: 0; stroke: #4b4b4b; stroke-width: 1.2"/>
   </g>
   <g id="line2d_20">
    <path d="M 116.0025 140.594545 
L 178.1885 140.594545 
" clip-path="url(#p1b689b3520)" style="fill: none; stroke-dasharray: 1.5,0.9; stroke-dashoffset: 0; stroke: #4b4b4b; stroke-width: 1.2"/>
   </g>
   <g id="line2d_21">
    <path d="M 116.0025 140.594545 
L 178.1885 140.594545 
" clip-path="url(#p1b689b3520)" style="fill: none; stroke-dasharray: 3,1.2; stroke-dashoffset: 0; stroke: #4b4b4b; stroke-width: 1.2"/>
   </g>
   <g id="line2d_22">
    <path d="M 116.0025 140.594545 
L 178.1885 140.594545 
" clip-path="url(#p1b689b3520)" style="fill: none; stroke-dasharray: 1.5,0.9; stroke-dashoffset: 0; stroke: #4b4b4b; stroke-width: 1.2"/>
   </g>
   <g id="line2d_23">
    <path d="M 209.2815 140.594545 
L 271.4675 140.594545 
" clip-path="url(#p1b689b3520)" style="fill: none; stroke-dasharray: 1.5,0.9; stroke-dashoffset: 0; stroke: #4b4b4b; stroke-width: 1.2"/>
   </g>
   <g id="line2d_24">
    <path d="M 209.2815 140.594545 
L 271.4675 140.594545 
" clip-path="url(#p1b689b3520)" style="fill: none; stroke-dasharray: 3,1.2; stroke-dashoffset: 0; stroke: #4b4b4b; stroke-width: 1.2"/>
   </g>
   <g id="line2d_25">
    <path d="M 249.759876 113.838182 
L 271.4675 113.838182 
" clip-path="url(#p1b689b3520)" style="fill: none; stroke-dasharray: 1.5,0.9; stroke-dashoffset: 0; stroke: #4b4b4b; stroke-width: 1.2"/>
   </g>
   <g id="line2d_26">
    <path d="M 271.4675 140.594545 
L 315.196188 140.594545 
" clip-path="url(#p1b689b3520)" style="fill: none; stroke-dasharray: 1.5,0.9; stroke-dashoffset: 0; stroke: #4b4b4b; stroke-width: 1.2"/>
   </g>
   <g id="line2d_27">
    <path d="M 271.4675 140.594545 
L 315.196188 140.594545 
" clip-path="url(#p1b689b3520)" style="fill: none; stroke-dasharray: 3,1.2; stroke-dashoffset: 0; stroke: #4b4b4b; stroke-width: 1.2"/>
   </g>
   <g id="line2d_28">
    <path d="M 271.4675 113.838182 
L 280.987081 113.838182 
" clip-path="url(#p1b689b3520)" style="fill: none; stroke-dasharray: 1.5,0.9; stroke-dashoffset: 0; stroke: #4b4b4b; stroke-width: 1.2"/>
   </g>
   <g id="patch_5">
    <path d="M 38.27 174.04 
L 38.27 26.88 
" style="fill: none; stroke: #ffffff; stroke-width: 0.8; stroke-linejoin: miter; stroke-linecap: square"/>
   </g>
   <g id="patch_6">
    <path d="M 349.2 174.04 
L 349.2 26.88 
" style="fill: none; stroke: #ffffff; stroke-width: 0.8; stroke-linejoin: miter; stroke-linecap: square"/>
   </g>
   <g id="patch_7">
    <path d="M 38.27 174.04 
L 349.2 174.04 
" style="fill: none; stroke: #ffffff; stroke-width: 0.8; stroke-linejoin: miter; stroke-linecap: square"/>
   </g>
   <g id="patch_8">
    <path d="M 38.27 26.88 
L 349.2 26.88 
" style="fill: none; stroke: #ffffff; stroke-width: 0.8; stroke-linejoin: miter; stroke-linecap: square"/>
   </g>
   <g id="text_11">
    <!-- Party Size by Sex and Smoking Status -->
    <g style="fill: #ffffff" transform="translate(79.790313 20.88) scale(0.12 -0.12)">
     <defs>
      <path id="DejaVuSans-50" d="M 1259 4147 
L 1259 2394 
L 2053 2394 
Q 2494 2394 2734 2622 
Q 2975 2850 2975 3272 
Q 2975 3691 2734 3919 
Q 2494 4147 2053 4147 
L 1259 4147 
z
M 628 4666 
L 2053 4666 
Q 2838 4666 3239 4311 
Q 3641 3956 3641 3272 
Q 3641 2581 3239 2228 
Q 2838 1875 2053 1875 
L 1259 1875 
L 1259 0 
L 628 0 
L 628 4666 
z
" transform="scale(0.015625)"/>
      <path id="DejaVuSans-72" d="M 2631 2963 
Q 2534 3019 2420 3045 
Q 2306 3072 2169 3072 
Q 1681 3072 1420 2755 
Q 1159 2438 1159 1844 
L 1159 0 
L 581 0 
L 581 3500 
L 1159 3500 
L 1159 2956 
Q 1341 3275 1631 3429 
Q 1922 3584 2338 3584 
Q 2397 3584 2469 3576 
Q 2541 3569 2628 3553 
L 2631 2963 
z
" transform="scale(0.015625)"/>
      <path id="DejaVuSans-74" d="M 1172 4494 
L 1172 3500 
L 2356 3500 
L 2356 3053 
L 1172 3053 
L 1172 1153 
Q 1172 725 1289 603 
Q 1406 481 1766 481 
L 2356 481 
L 2356 0 
L 1766 0 
Q 1100 0 847 248 
Q 594 497 594 1153 
L 594 3053 
L 172 3053 
L 172 3500 
L 594 3500 
L 594 4494 
L 1172 4494 
z
" transform="scale(0.015625)"/>
      <path id="DejaVuSans-79" d="M 2059 -325 
Q 1816 -950 1584 -1140 
Q 1353 -1331 966 -1331 
L 506 -1331 
L 506 -850 
L 844 -850 
Q 1081 -850 1212 -737 
Q 1344 -625 1503 -206 
L 1606 56 
L 191 3500 
L 800 3500 
L 1894 763 
L 2988 3500 
L 3597 3500 
L 2059 -325 
z
" transform="scale(0.015625)"/>
      <path id="DejaVuSans-20" transform="scale(0.015625)"/>
      <path id="DejaVuSans-62" d="M 3116 1747 
Q 3116 2381 2855 2742 
Q 2594 3103 2138 3103 
Q 1681 3103 1420 2742 
Q 1159 2381 1159 1747 
Q 1159 1113 1420 752 
Q 1681 391 2138 391 
Q 2594 391 2855 752 
Q 3116 1113 3116 1747 
z
M 1159 2969 
Q 1341 3281 1617 3432 
Q 1894 3584 2278 3584 
Q 2916 3584 3314 3078 
Q 3713 2572 3713 1747 
Q 3713 922 3314 415 
Q 2916 -91 2278 -91 
Q 1894 -91 1617 61 
Q 1341 213 1159 525 
L 1159 0 
L 581 0 
L 581 4863 
L 1159 4863 
L 1159 2969 
z
" transform="scale(0.015625)"/>
      <path id="DejaVuSans-6e" d="M 3513 2113 
L 3513 0 
L 2938 0 
L 2938 2094 
Q 2938 2591 2744 2837 
Q 2550 3084 2163 3084 
Q 1697 3084 1428 2787 
Q 1159 2491 1159 1978 
L 1159 0 
L 581 0 
L 581 3500 
L 1159 3500 
L 1159 2956 
Q 1366 3272 1645 3428 
Q 1925 3584 2291 3584 
Q 2894 3584 3203 3211 
Q 3513 2838 3513 2113 
z
" transform="scale(0.015625)"/>
      <path id="DejaVuSans-64" d="M 2906 2969 
L 2906 4863 
L 3481 4863 
L 3481 0 
L 2906 0 
L 2906 525 
Q 2725 213 2448 61 
Q 2172 -91 1784 -91 
Q 1150 -91 751 415 
Q 353 922 353 1747 
Q 353 2572 751 3078 
Q 1150 3584 1784 3584 
Q 2172 3584 2448 3432 
Q 2725 3281 2906 2969 
z
M 947 1747 
Q 947 1113 1208 752 
Q 1469 391 1925 391 
Q 2381 391 2643 752 
Q 2906 1113 2906 1747 
Q 2906 2381 2643 2742 
Q 2381 3103 1925 3103 
Q 1469 3103 1208 2742 
Q 947 2381 947 1747 
z
" transform="scale(0.015625)"/>
      <path id="DejaVuSans-6f" d="M 1959 3097 
Q 1497 3097 1228 2736 
Q 959 2375 959 1747 
Q 959 1119 1226 758 
Q 1494 397 1959 397 
Q 2419 397 2687 759 
Q 2956 1122 2956 1747 
Q 2956 2369 2687 2733 
Q 2419 3097 1959 3097 
z
M 1959 3584 
Q 2709 3584 3137 3096 
Q 3566 2609 3566 1747 
Q 3566 888 3137 398 
Q 2709 -91 1959 -91 
Q 1206 -91 779 398 
Q 353 888 353 1747 
Q 353 2609 779 3096 
Q 1206 3584 1959 3584 
z
" transform="scale(0.015625)"/>
      <path id="DejaVuSans-6b" d="M 581 4863 
L 1159 4863 
L 1159 1991 
L 2875 3500 
L 3609 3500 
L 1753 1863 
L 3688 0 
L 2938 0 
L 1159 1709 
L 1159 0 
L 581 0 
L 581 4863 
z
" transform="scale(0.015625)"/>
      <path id="DejaVuSans-67" d="M 2906 1791 
Q 2906 2416 2648 2759 
Q 2391 3103 1925 3103 
Q 1463 3103 1205 2759 
Q 947 2416 947 1791 
Q 947 1169 1205 825 
Q 1463 481 1925 481 
Q 2391 481 2648 825 
Q 2906 1169 2906 1791 
z
M 3481 434 
Q 3481 -459 3084 -895 
Q 2688 -1331 1869 -1331 
Q 1566 -1331 1297 -1286 
Q 1028 -1241 775 -1147 
L 775 -588 
Q 1028 -725 1275 -790 
Q 1522 -856 1778 -856 
Q 2344 -856 2625 -561 
Q 2906 -266 2906 331 
L 2906 616 
Q 2728 306 2450 153 
Q 2172 0 1784 0 
Q 1141 0 747 490 
Q 353 981 353 1791 
Q 353 2603 747 3093 
Q 1141 3584 1784 3584 
Q 2172 3584 2450 3431 
Q 2728 3278 2906 2969 
L 2906 3500 
L 3481 3500 
L 3481 434 
z
" transform="scale(0.015625)"/>
      <path id="DejaVuSans-75" d="M 544 1381 
L 544 3500 
L 1119 3500 
L 1119 1403 
Q 1119 906 1312 657 
Q 1506 409 1894 409 
Q 2359 409 2629 706 
Q 2900 1003 2900 1516 
L 2900 3500 
L 3475 3500 
L 3475 0 
L 2900 0 
L 2900 538 
Q 2691 219 2414 64 
Q 2138 -91 1772 -91 
Q 1169 -91 856 284 
Q 544 659 544 1381 
z
M 1991 3584 
L 1991 3584 
z
" transform="scale(0.015625)"/>
      <path id="DejaVuSans-73" d="M 2834 3397 
L 2834 2853 
Q 2591 2978 2328 3040 
Q 2066 3103 1784 3103 
Q 1356 3103 1142 2972 
Q 928 2841 928 2578 
Q 928 2378 1081 2264 
Q 1234 2150 1697 2047 
L 1894 2003 
Q 2506 1872 2764 1633 
Q 3022 1394 3022 966 
Q 3022 478 2636 193 
Q 2250 -91 1575 -91 
Q 1294 -91 989 -36 
Q 684 19 347 128 
L 347 722 
Q 666 556 975 473 
Q 1284 391 1588 391 
Q 1994 391 2212 530 
Q 2431 669 2431 922 
Q 2431 1156 2273 1281 
Q 2116 1406 1581 1522 
L 1381 1569 
Q 847 1681 609 1914 
Q 372 2147 372 2553 
Q 372 3047 722 3315 
Q 1072 3584 1716 3584 
Q 2034 3584 2315 3537 
Q 2597 3491 2834 3397 
z
" transform="scale(0.015625)"/>
     </defs>
     <use xlink:href="#DejaVuSans-50"/>
     <use xlink:href="#DejaVuSans-61" transform="translate(55.802734 0)"/>
     <use xlink:href="#DejaVuSans-72" transform="translate(117.082031 0)"/>
     <use xlink:href="#DejaVuSans-74" transform="translate(158.195312 0)"/>
     <use xlink:href="#DejaVuSans-79" transform="translate(197.404297 0)"/>
     <use xlink:href="#DejaVuSans-20" transform="translate(256.583984 0)"/>
     <use xlink:href="#DejaVuSans-53" transform="translate(288.371094 0)"/>
     <use xlink:href="#DejaVuSans-69" transform="translate(351.847656 0)"/>
     <use xlink:href="#DejaVuSans-7a" transform="translate(379.630859 0)"/>
     <use xlink:href="#DejaVuSans-65" transform="translate(432.121094 0)"/>
     <use xlink:href="#DejaVuSans-20" transform="translate(493.644531 0)"/>
     <use xlink:href="#DejaVuSans-62" transform="translate(525.431641 0)"/>
     <use xlink:href="#DejaVuSans-79" transform="translate(588.908203 0)"/>
     <use xlink:href="#DejaVuSans-20" transform="translate(648.087891 0)"/>
     <use xlink:href="#DejaVuSans-53" transform="translate(679.875 0)"/>
     <use xlink:href="#DejaVuSans-65" transform="translate(743.351562 0)"/>
     <use xlink:href="#DejaVuSans-78" transform="translate(803.125 0)"/>
     <use xlink:href="#DejaVuSans-20" transform="translate(862.304688 0)"/>
     <use xlink:href="#DejaVuSans-61" transform="translate(894.091797 0)"/>
     <use xlink:href="#DejaVuSans-6e" transform="translate(955.371094 0)"/>
     <use xlink:href="#DejaVuSans-64" transform="translate(1018.75 0)"/>
     <use xlink:href="#DejaVuSans-20" transform="translate(1082.226562 0)"/>
     <use xlink:href="#DejaVuSans-53" transform="translate(1114.013672 0)"/>
     <use xlink:href="#DejaVuSans-6d" transform="translate(1177.490234 0)"/>
     <use xlink:href="#DejaVuSans-6f" transform="translate(1274.902344 0)"/>
     <use xlink:href="#DejaVuSans-6b" transform="translate(1336.083984 0)"/>
     <use xlink:href="#DejaVuSans-69" transform="translate(1393.994141 0)"/>
     <use xlink:href="#DejaVuSans-6e" transform="translate(1421.777344 0)"/>
     <use xlink:href="#DejaVuSans-67" transform="translate(1485.15625 0)"/>
     <use xlink:href="#DejaVuSans-20" transform="translate(1548.632812 0)"/>
     <use xlink:href="#DejaVuSans-53" transform="translate(1580.419922 0)"/>
     <use xlink:href="#DejaVuSans-74" transform="translate(1643.896484 0)"/>
     <use xlink:href="#DejaVuSans-61" transform="translate(1683.105469 0)"/>
     <use xlink:href="#DejaVuSans-74" transform="translate(1744.384766 0)"/>
     <use xlink:href="#DejaVuSans-75" transform="translate(1783.59375 0)"/>
     <use xlink:href="#DejaVuSans-73" transform="translate(1846.972656 0)"/>
    </g>
   </g>
   <g id="legend_1">
    <g id="patch_9">
     <path d="M 294.054688 78.914375 
L 342.2 78.914375 
Q 344.2 78.914375 344.2 76.914375 
L 344.2 33.88 
Q 344.2 31.88 342.2 31.88 
L 294.054688 31.88 
Q 292.054688 31.88 292.054688 33.88 
L 292.054688 76.914375 
Q 292.054688 78.914375 294.054688 78.914375 
z
" style="fill: #111111; opacity: 0.8; stroke: #ffffff; stroke-linejoin: miter"/>
    </g>
    <g id="text_12">
     <!-- Smoker -->
     <g style="fill: #ffffff" transform="translate(299.177344 43.478438) scale(0.1 -0.1)">
      <use xlink:href="#DejaVuSans-53"/>
      <use xlink:href="#DejaVuSans-6d" transform="translate(63.476562 0)"/>
      <use xlink:href="#DejaVuSans-6f" transform="translate(160.888672 0)"/>
      <use xlink:href="#DejaVuSans-6b" transform="translate(222.070312 0)"/>
      <use xlink:href="#DejaVuSans-65" transform="translate(276.355469 0)"/>
      <use xlink:href="#DejaVuSans-72" transform="translate(337.878906 0)"/>
     </g>
    </g>
    <g id="patch_10">
     <path d="M 296.054688 58.156563 
L 316.054688 58.156563 
L 316.054688 51.156563 
L 296.054688 51.156563 
z
" style="fill: #9e9e9e; stroke: #4b4b4b; stroke-width: 1.2; stroke-linejoin: miter"/>
    </g>
    <g id="text_13">
     <!-- No -->
     <g style="fill: #ffffff" transform="translate(324.054688 58.156563) scale(0.1 -0.1)">
      <defs>
       <path id="DejaVuSans-4e" d="M 628 4666 
L 1478 4666 
L 3547 763 
L 3547 4666 
L 4159 4666 
L 4159 0 
L 3309 0 
L 1241 3903 
L 1241 0 
L 628 0 
L 628 4666 
z
" transform="scale(0.015625)"/>
      </defs>
      <use xlink:href="#DejaVuSans-4e"/>
      <use xlink:href="#DejaVuSans-6f" transform="translate(74.804688 0)"/>
     </g>
    </g>
    <g id="patch_11">
     <path d="M 296.054688 72.834688 
L 316.054688 72.834688 
L 316.054688 65.834688 
L 296.054688 65.834688 
z
" style="fill: #42b874; stroke: #4b4b4b; stroke-width: 1.2; stroke-linejoin: miter"/>
    </g>
    <g id="text_14">
     <!-- Yes -->
     <g style="fill: #ffffff" transform="translate(324.054688 72.834688) scale(0.1 -0.1)">
      <defs>
       <path id="DejaVuSans-59" d="M -13 4666 
L 666 4666 
L 1959 2747 
L 3244 4666 
L 3922 4666 
L 2272 2222 
L 2272 0 
L 1638 0 
L 1638 2222 
L -13 4666 
z
" transform="scale(0.015625)"/>
      </defs>
      <use xlink:href="#DejaVuSans-59"/>
      <use xlink:href="#DejaVuSans-65" transform="translate(47.833984 0)"/>
      <use xlink:href="#DejaVuSans-73" transform="translate(109.357422 0)"/>
     </g>
    </g>
   </g>
  </g>
 </g>
 <defs>
  <clipPath id="p1b689b3520">
   <rect x="38.27" y="26.88" width="310.93" height="147.16"/>
  </clipPath>
 </defs>
</svg>
